<?xml version="1.0" encoding="utf-8"?>
<svg viewBox="81.926 192.2049 359.9859 98.4934" width="359.986" height="98.493" xmlns="http://www.w3.org/2000/svg">
  <defs>
    <linearGradient gradientUnits="userSpaceOnUse" x1="257.403" y1="43.866" x2="257.403" y2="332.548" id="gradient-0" gradientTransform="matrix(-0.261428, -0.215302, 0.1875, -0.227671, 166.192886, 344.949421)">
      <stop offset="0" style="stop-color: rgb(229, 156, 64);"/>
      <stop offset="1" style="stop-color: rgb(113, 211, 203);"/>
    </linearGradient>
  </defs>
  <path d="M 179.402 241.368 C 179.402 244.944 179.018 248.431 178.287 251.789 C 159.857 236.021 124.897 210.473 92.39 211.013 C 101.33 199.773 115.125 192.568 130.602 192.568 C 157.554 192.568 179.402 214.417 179.402 241.368 Z M 130.602 290.168 C 105.765 290.168 85.261 271.613 82.198 247.608 C 100.661 251.385 125.738 261.283 150.056 286.135 C 144.097 288.729 137.517 290.168 130.602 290.168 Z M 86.708 220.018 C 102.276 219.972 139.671 224.154 175.439 260.664 C 171.742 269.242 165.656 276.547 158.02 281.744 C 143.946 269.043 113.136 244.128 81.926 237.863 C 82.377 231.5 84.049 225.474 86.708 220.018 Z" style="stroke: rgb(0, 0, 0); fill: url(#gradient-0); paint-order: fill; stroke-opacity: 0; transform-origin: 130.664px 241.368px;"/>
  <text style="fill: rgb(23, 49, 58); font-family: Arial, sans-serif; font-size: 59.5px; font-weight: 700; white-space: pre;" x="194.054" y="246.208">FUTURO</text>
  <text style="white-space: pre; fill: rgb(51, 51, 51); font-family: Arial, sans-serif; font-size: 21.8px;" x="226.517" y="285.698">CONSULTORIA</text>
</svg>